<?xml version="1.0" encoding="utf-8" standalone="no"?>
<!DOCTYPE svg PUBLIC "-//W3C//DTD SVG 1.1//EN"
  "http://www.w3.org/Graphics/SVG/1.1/DTD/svg11.dtd">
<!-- Created with matplotlib (http://matplotlib.org/) -->
<svg height="577.522175pt" version="1.1" viewBox="0 0 481.104 577.522175" width="481.104pt" xmlns="http://www.w3.org/2000/svg" xmlns:xlink="http://www.w3.org/1999/xlink">
 <defs>
  <style type="text/css">
*{stroke-linecap:butt;stroke-linejoin:round;}
  </style>
 </defs>
 <g id="figure_1">
  <g id="patch_1">
   <path d="M 0 577.522175 
L 481.104 577.522175 
L 481.104 0 
L 0 0 
z
" style="fill:#ffffff;"/>
  </g>
  <g id="axes_1">
   <g id="patch_2">
    <path d="M 101.052 396.414675 
L 380.052 396.414675 
L 380.052 119.214675 
L 101.052 119.214675 
z
" style="fill:#ffffff;"/>
   </g>
   <g id="matplotlib.axis_1">
    <g id="xtick_1">
     <g id="line2d_1">
      <path clip-path="url(#p7949999379)" d="M 135.927 396.414675 
L 135.927 119.214675 
" style="fill:none;stroke:#b0b0b0;stroke-linecap:square;stroke-width:0.8;"/>
     </g>
     <g id="line2d_2">
      <defs>
       <path d="M 0 0 
L 0 3.5 
" id="mcf4bc67805" style="stroke:#000000;stroke-width:0.8;"/>
      </defs>
      <g>
       <use style="stroke:#000000;stroke-width:0.8;" x="135.927" xlink:href="#mcf4bc67805" y="396.414675"/>
      </g>
     </g>
     <g id="text_1">
      <!-- Col-0_27C/17C_ZT8 -->
      <defs>
       <path d="M 64.40625 67.28125 
L 64.40625 56.890625 
Q 59.421875 61.53125 53.78125 63.8125 
Q 48.140625 66.109375 41.796875 66.109375 
Q 29.296875 66.109375 22.65625 58.46875 
Q 16.015625 50.828125 16.015625 36.375 
Q 16.015625 21.96875 22.65625 14.328125 
Q 29.296875 6.6875 41.796875 6.6875 
Q 48.140625 6.6875 53.78125 8.984375 
Q 59.421875 11.28125 64.40625 15.921875 
L 64.40625 5.609375 
Q 59.234375 2.09375 53.4375 0.328125 
Q 47.65625 -1.421875 41.21875 -1.421875 
Q 24.65625 -1.421875 15.125 8.703125 
Q 5.609375 18.84375 5.609375 36.375 
Q 5.609375 53.953125 15.125 64.078125 
Q 24.65625 74.21875 41.21875 74.21875 
Q 47.75 74.21875 53.53125 72.484375 
Q 59.328125 70.75 64.40625 67.28125 
z
" id="DejaVuSans-43"/>
       <path d="M 30.609375 48.390625 
Q 23.390625 48.390625 19.1875 42.75 
Q 14.984375 37.109375 14.984375 27.296875 
Q 14.984375 17.484375 19.15625 11.84375 
Q 23.34375 6.203125 30.609375 6.203125 
Q 37.796875 6.203125 41.984375 11.859375 
Q 46.1875 17.53125 46.1875 27.296875 
Q 46.1875 37.015625 41.984375 42.703125 
Q 37.796875 48.390625 30.609375 48.390625 
z
M 30.609375 56 
Q 42.328125 56 49.015625 48.375 
Q 55.71875 40.765625 55.71875 27.296875 
Q 55.71875 13.875 49.015625 6.21875 
Q 42.328125 -1.421875 30.609375 -1.421875 
Q 18.84375 -1.421875 12.171875 6.21875 
Q 5.515625 13.875 5.515625 27.296875 
Q 5.515625 40.765625 12.171875 48.375 
Q 18.84375 56 30.609375 56 
z
" id="DejaVuSans-6f"/>
       <path d="M 9.421875 75.984375 
L 18.40625 75.984375 
L 18.40625 0 
L 9.421875 0 
z
" id="DejaVuSans-6c"/>
       <path d="M 4.890625 31.390625 
L 31.203125 31.390625 
L 31.203125 23.390625 
L 4.890625 23.390625 
z
" id="DejaVuSans-2d"/>
       <path d="M 31.78125 66.40625 
Q 24.171875 66.40625 20.328125 58.90625 
Q 16.5 51.421875 16.5 36.375 
Q 16.5 21.390625 20.328125 13.890625 
Q 24.171875 6.390625 31.78125 6.390625 
Q 39.453125 6.390625 43.28125 13.890625 
Q 47.125 21.390625 47.125 36.375 
Q 47.125 51.421875 43.28125 58.90625 
Q 39.453125 66.40625 31.78125 66.40625 
z
M 31.78125 74.21875 
Q 44.046875 74.21875 50.515625 64.515625 
Q 56.984375 54.828125 56.984375 36.375 
Q 56.984375 17.96875 50.515625 8.265625 
Q 44.046875 -1.421875 31.78125 -1.421875 
Q 19.53125 -1.421875 13.0625 8.265625 
Q 6.59375 17.96875 6.59375 36.375 
Q 6.59375 54.828125 13.0625 64.515625 
Q 19.53125 74.21875 31.78125 74.21875 
z
" id="DejaVuSans-30"/>
       <path d="M 50.984375 -16.609375 
L 50.984375 -23.578125 
L -0.984375 -23.578125 
L -0.984375 -16.609375 
z
" id="DejaVuSans-5f"/>
       <path d="M 19.1875 8.296875 
L 53.609375 8.296875 
L 53.609375 0 
L 7.328125 0 
L 7.328125 8.296875 
Q 12.9375 14.109375 22.625 23.890625 
Q 32.328125 33.6875 34.8125 36.53125 
Q 39.546875 41.84375 41.421875 45.53125 
Q 43.3125 49.21875 43.3125 52.78125 
Q 43.3125 58.59375 39.234375 62.25 
Q 35.15625 65.921875 28.609375 65.921875 
Q 23.96875 65.921875 18.8125 64.3125 
Q 13.671875 62.703125 7.8125 59.421875 
L 7.8125 69.390625 
Q 13.765625 71.78125 18.9375 73 
Q 24.125 74.21875 28.421875 74.21875 
Q 39.75 74.21875 46.484375 68.546875 
Q 53.21875 62.890625 53.21875 53.421875 
Q 53.21875 48.921875 51.53125 44.890625 
Q 49.859375 40.875 45.40625 35.40625 
Q 44.1875 33.984375 37.640625 27.21875 
Q 31.109375 20.453125 19.1875 8.296875 
z
" id="DejaVuSans-32"/>
       <path d="M 8.203125 72.90625 
L 55.078125 72.90625 
L 55.078125 68.703125 
L 28.609375 0 
L 18.3125 0 
L 43.21875 64.59375 
L 8.203125 64.59375 
z
" id="DejaVuSans-37"/>
       <path d="M 25.390625 72.90625 
L 33.6875 72.90625 
L 8.296875 -9.28125 
L 0 -9.28125 
z
" id="DejaVuSans-2f"/>
       <path d="M 12.40625 8.296875 
L 28.515625 8.296875 
L 28.515625 63.921875 
L 10.984375 60.40625 
L 10.984375 69.390625 
L 28.421875 72.90625 
L 38.28125 72.90625 
L 38.28125 8.296875 
L 54.390625 8.296875 
L 54.390625 0 
L 12.40625 0 
z
" id="DejaVuSans-31"/>
       <path d="M 5.609375 72.90625 
L 62.890625 72.90625 
L 62.890625 65.375 
L 16.796875 8.296875 
L 64.015625 8.296875 
L 64.015625 0 
L 4.5 0 
L 4.5 7.515625 
L 50.59375 64.59375 
L 5.609375 64.59375 
z
" id="DejaVuSans-5a"/>
       <path d="M -0.296875 72.90625 
L 61.375 72.90625 
L 61.375 64.59375 
L 35.5 64.59375 
L 35.5 0 
L 25.59375 0 
L 25.59375 64.59375 
L -0.296875 64.59375 
z
" id="DejaVuSans-54"/>
       <path d="M 31.78125 34.625 
Q 24.75 34.625 20.71875 30.859375 
Q 16.703125 27.09375 16.703125 20.515625 
Q 16.703125 13.921875 20.71875 10.15625 
Q 24.75 6.390625 31.78125 6.390625 
Q 38.8125 6.390625 42.859375 10.171875 
Q 46.921875 13.96875 46.921875 20.515625 
Q 46.921875 27.09375 42.890625 30.859375 
Q 38.875 34.625 31.78125 34.625 
z
M 21.921875 38.8125 
Q 15.578125 40.375 12.03125 44.71875 
Q 8.5 49.078125 8.5 55.328125 
Q 8.5 64.0625 14.71875 69.140625 
Q 20.953125 74.21875 31.78125 74.21875 
Q 42.671875 74.21875 48.875 69.140625 
Q 55.078125 64.0625 55.078125 55.328125 
Q 55.078125 49.078125 51.53125 44.71875 
Q 48 40.375 41.703125 38.8125 
Q 48.828125 37.15625 52.796875 32.3125 
Q 56.78125 27.484375 56.78125 20.515625 
Q 56.78125 9.90625 50.3125 4.234375 
Q 43.84375 -1.421875 31.78125 -1.421875 
Q 19.734375 -1.421875 13.25 4.234375 
Q 6.78125 9.90625 6.78125 20.515625 
Q 6.78125 27.484375 10.78125 32.3125 
Q 14.796875 37.15625 21.921875 38.8125 
z
M 18.3125 54.390625 
Q 18.3125 48.734375 21.84375 45.5625 
Q 25.390625 42.390625 31.78125 42.390625 
Q 38.140625 42.390625 41.71875 45.5625 
Q 45.3125 48.734375 45.3125 54.390625 
Q 45.3125 60.0625 41.71875 63.234375 
Q 38.140625 66.40625 31.78125 66.40625 
Q 25.390625 66.40625 21.84375 63.234375 
Q 18.3125 60.0625 18.3125 54.390625 
z
" id="DejaVuSans-38"/>
      </defs>
      <g transform="translate(140.1195 560.142175)rotate(-90)scale(0.16 -0.16)">
       <use xlink:href="#DejaVuSans-43"/>
       <use x="69.824219" xlink:href="#DejaVuSans-6f"/>
       <use x="131.005859" xlink:href="#DejaVuSans-6c"/>
       <use x="158.789062" xlink:href="#DejaVuSans-2d"/>
       <use x="194.873047" xlink:href="#DejaVuSans-30"/>
       <use x="258.496094" xlink:href="#DejaVuSans-5f"/>
       <use x="308.496094" xlink:href="#DejaVuSans-32"/>
       <use x="372.119141" xlink:href="#DejaVuSans-37"/>
       <use x="435.742188" xlink:href="#DejaVuSans-43"/>
       <use x="505.566406" xlink:href="#DejaVuSans-2f"/>
       <use x="539.257812" xlink:href="#DejaVuSans-31"/>
       <use x="602.880859" xlink:href="#DejaVuSans-37"/>
       <use x="666.503906" xlink:href="#DejaVuSans-43"/>
       <use x="736.328125" xlink:href="#DejaVuSans-5f"/>
       <use x="786.328125" xlink:href="#DejaVuSans-5a"/>
       <use x="854.833984" xlink:href="#DejaVuSans-54"/>
       <use x="915.917969" xlink:href="#DejaVuSans-38"/>
      </g>
     </g>
    </g>
    <g id="xtick_2">
     <g id="line2d_3">
      <path clip-path="url(#p7949999379)" d="M 205.677 396.414675 
L 205.677 119.214675 
" style="fill:none;stroke:#b0b0b0;stroke-linecap:square;stroke-width:0.8;"/>
     </g>
     <g id="line2d_4">
      <g>
       <use style="stroke:#000000;stroke-width:0.8;" x="205.677" xlink:href="#mcf4bc67805" y="396.414675"/>
      </g>
     </g>
     <g id="text_2">
      <!-- pif7_27C/17C_ZT8 -->
      <defs>
       <path d="M 18.109375 8.203125 
L 18.109375 -20.796875 
L 9.078125 -20.796875 
L 9.078125 54.6875 
L 18.109375 54.6875 
L 18.109375 46.390625 
Q 20.953125 51.265625 25.265625 53.625 
Q 29.59375 56 35.59375 56 
Q 45.5625 56 51.78125 48.09375 
Q 58.015625 40.1875 58.015625 27.296875 
Q 58.015625 14.40625 51.78125 6.484375 
Q 45.5625 -1.421875 35.59375 -1.421875 
Q 29.59375 -1.421875 25.265625 0.953125 
Q 20.953125 3.328125 18.109375 8.203125 
z
M 48.6875 27.296875 
Q 48.6875 37.203125 44.609375 42.84375 
Q 40.53125 48.484375 33.40625 48.484375 
Q 26.265625 48.484375 22.1875 42.84375 
Q 18.109375 37.203125 18.109375 27.296875 
Q 18.109375 17.390625 22.1875 11.75 
Q 26.265625 6.109375 33.40625 6.109375 
Q 40.53125 6.109375 44.609375 11.75 
Q 48.6875 17.390625 48.6875 27.296875 
z
" id="DejaVuSans-70"/>
       <path d="M 9.421875 54.6875 
L 18.40625 54.6875 
L 18.40625 0 
L 9.421875 0 
z
M 9.421875 75.984375 
L 18.40625 75.984375 
L 18.40625 64.59375 
L 9.421875 64.59375 
z
" id="DejaVuSans-69"/>
       <path d="M 37.109375 75.984375 
L 37.109375 68.5 
L 28.515625 68.5 
Q 23.6875 68.5 21.796875 66.546875 
Q 19.921875 64.59375 19.921875 59.515625 
L 19.921875 54.6875 
L 34.71875 54.6875 
L 34.71875 47.703125 
L 19.921875 47.703125 
L 19.921875 0 
L 10.890625 0 
L 10.890625 47.703125 
L 2.296875 47.703125 
L 2.296875 54.6875 
L 10.890625 54.6875 
L 10.890625 58.5 
Q 10.890625 67.625 15.140625 71.796875 
Q 19.390625 75.984375 28.609375 75.984375 
z
" id="DejaVuSans-66"/>
      </defs>
      <g transform="translate(209.8695 549.197175)rotate(-90)scale(0.16 -0.16)">
       <use xlink:href="#DejaVuSans-70"/>
       <use x="63.476562" xlink:href="#DejaVuSans-69"/>
       <use x="91.259766" xlink:href="#DejaVuSans-66"/>
       <use x="126.464844" xlink:href="#DejaVuSans-37"/>
       <use x="190.087891" xlink:href="#DejaVuSans-5f"/>
       <use x="240.087891" xlink:href="#DejaVuSans-32"/>
       <use x="303.710938" xlink:href="#DejaVuSans-37"/>
       <use x="367.333984" xlink:href="#DejaVuSans-43"/>
       <use x="437.158203" xlink:href="#DejaVuSans-2f"/>
       <use x="470.849609" xlink:href="#DejaVuSans-31"/>
       <use x="534.472656" xlink:href="#DejaVuSans-37"/>
       <use x="598.095703" xlink:href="#DejaVuSans-43"/>
       <use x="667.919922" xlink:href="#DejaVuSans-5f"/>
       <use x="717.919922" xlink:href="#DejaVuSans-5a"/>
       <use x="786.425781" xlink:href="#DejaVuSans-54"/>
       <use x="847.509766" xlink:href="#DejaVuSans-38"/>
      </g>
     </g>
    </g>
    <g id="xtick_3">
     <g id="line2d_5">
      <path clip-path="url(#p7949999379)" d="M 275.427 396.414675 
L 275.427 119.214675 
" style="fill:none;stroke:#b0b0b0;stroke-linecap:square;stroke-width:0.8;"/>
     </g>
     <g id="line2d_6">
      <g>
       <use style="stroke:#000000;stroke-width:0.8;" x="275.427" xlink:href="#mcf4bc67805" y="396.414675"/>
      </g>
     </g>
     <g id="text_3">
      <!-- Col-0_27C/17C_ZT12 -->
      <g transform="translate(279.6195 570.322175)rotate(-90)scale(0.16 -0.16)">
       <use xlink:href="#DejaVuSans-43"/>
       <use x="69.824219" xlink:href="#DejaVuSans-6f"/>
       <use x="131.005859" xlink:href="#DejaVuSans-6c"/>
       <use x="158.789062" xlink:href="#DejaVuSans-2d"/>
       <use x="194.873047" xlink:href="#DejaVuSans-30"/>
       <use x="258.496094" xlink:href="#DejaVuSans-5f"/>
       <use x="308.496094" xlink:href="#DejaVuSans-32"/>
       <use x="372.119141" xlink:href="#DejaVuSans-37"/>
       <use x="435.742188" xlink:href="#DejaVuSans-43"/>
       <use x="505.566406" xlink:href="#DejaVuSans-2f"/>
       <use x="539.257812" xlink:href="#DejaVuSans-31"/>
       <use x="602.880859" xlink:href="#DejaVuSans-37"/>
       <use x="666.503906" xlink:href="#DejaVuSans-43"/>
       <use x="736.328125" xlink:href="#DejaVuSans-5f"/>
       <use x="786.328125" xlink:href="#DejaVuSans-5a"/>
       <use x="854.833984" xlink:href="#DejaVuSans-54"/>
       <use x="915.917969" xlink:href="#DejaVuSans-31"/>
       <use x="979.541016" xlink:href="#DejaVuSans-32"/>
      </g>
     </g>
    </g>
    <g id="xtick_4">
     <g id="line2d_7">
      <path clip-path="url(#p7949999379)" d="M 345.177 396.414675 
L 345.177 119.214675 
" style="fill:none;stroke:#b0b0b0;stroke-linecap:square;stroke-width:0.8;"/>
     </g>
     <g id="line2d_8">
      <g>
       <use style="stroke:#000000;stroke-width:0.8;" x="345.177" xlink:href="#mcf4bc67805" y="396.414675"/>
      </g>
     </g>
     <g id="text_4">
      <!-- pif7_27C/17C_ZT12 -->
      <g transform="translate(349.3695 559.377175)rotate(-90)scale(0.16 -0.16)">
       <use xlink:href="#DejaVuSans-70"/>
       <use x="63.476562" xlink:href="#DejaVuSans-69"/>
       <use x="91.259766" xlink:href="#DejaVuSans-66"/>
       <use x="126.464844" xlink:href="#DejaVuSans-37"/>
       <use x="190.087891" xlink:href="#DejaVuSans-5f"/>
       <use x="240.087891" xlink:href="#DejaVuSans-32"/>
       <use x="303.710938" xlink:href="#DejaVuSans-37"/>
       <use x="367.333984" xlink:href="#DejaVuSans-43"/>
       <use x="437.158203" xlink:href="#DejaVuSans-2f"/>
       <use x="470.849609" xlink:href="#DejaVuSans-31"/>
       <use x="534.472656" xlink:href="#DejaVuSans-37"/>
       <use x="598.095703" xlink:href="#DejaVuSans-43"/>
       <use x="667.919922" xlink:href="#DejaVuSans-5f"/>
       <use x="717.919922" xlink:href="#DejaVuSans-5a"/>
       <use x="786.425781" xlink:href="#DejaVuSans-54"/>
       <use x="847.509766" xlink:href="#DejaVuSans-31"/>
       <use x="911.132812" xlink:href="#DejaVuSans-32"/>
      </g>
     </g>
    </g>
   </g>
   <g id="matplotlib.axis_2">
    <g id="ytick_1">
     <g id="line2d_9">
      <path clip-path="url(#p7949999379)" d="M 101.052 396.414675 
L 380.052 396.414675 
" style="fill:none;stroke:#b0b0b0;stroke-linecap:square;stroke-width:0.8;"/>
     </g>
     <g id="line2d_10">
      <defs>
       <path d="M 0 0 
L -3.5 0 
" id="mfa0978aaf7" style="stroke:#000000;stroke-width:0.8;"/>
      </defs>
      <g>
       <use style="stroke:#000000;stroke-width:0.8;" x="101.052" xlink:href="#mfa0978aaf7" y="396.414675"/>
      </g>
     </g>
     <g id="text_5">
      <!-- −2 -->
      <defs>
       <path d="M 10.59375 35.5 
L 73.1875 35.5 
L 73.1875 27.203125 
L 10.59375 27.203125 
z
" id="DejaVuSans-2212"/>
      </defs>
      <g transform="translate(73.412937 401.733581)scale(0.14 -0.14)">
       <use xlink:href="#DejaVuSans-2212"/>
       <use x="83.789062" xlink:href="#DejaVuSans-32"/>
      </g>
     </g>
    </g>
    <g id="ytick_2">
     <g id="line2d_11">
      <path clip-path="url(#p7949999379)" d="M 101.052 350.214675 
L 380.052 350.214675 
" style="fill:none;stroke:#b0b0b0;stroke-linecap:square;stroke-width:0.8;"/>
     </g>
     <g id="line2d_12">
      <g>
       <use style="stroke:#000000;stroke-width:0.8;" x="101.052" xlink:href="#mfa0978aaf7" y="350.214675"/>
      </g>
     </g>
     <g id="text_6">
      <!-- −1 -->
      <g transform="translate(73.412937 355.533581)scale(0.14 -0.14)">
       <use xlink:href="#DejaVuSans-2212"/>
       <use x="83.789062" xlink:href="#DejaVuSans-31"/>
      </g>
     </g>
    </g>
    <g id="ytick_3">
     <g id="line2d_13">
      <path clip-path="url(#p7949999379)" d="M 101.052 304.014675 
L 380.052 304.014675 
" style="fill:none;stroke:#b0b0b0;stroke-linecap:square;stroke-width:0.8;"/>
     </g>
     <g id="line2d_14">
      <g>
       <use style="stroke:#000000;stroke-width:0.8;" x="101.052" xlink:href="#mfa0978aaf7" y="304.014675"/>
      </g>
     </g>
     <g id="text_7">
      <!-- 0 -->
      <g transform="translate(85.1445 309.333581)scale(0.14 -0.14)">
       <use xlink:href="#DejaVuSans-30"/>
      </g>
     </g>
    </g>
    <g id="ytick_4">
     <g id="line2d_15">
      <path clip-path="url(#p7949999379)" d="M 101.052 257.814675 
L 380.052 257.814675 
" style="fill:none;stroke:#b0b0b0;stroke-linecap:square;stroke-width:0.8;"/>
     </g>
     <g id="line2d_16">
      <g>
       <use style="stroke:#000000;stroke-width:0.8;" x="101.052" xlink:href="#mfa0978aaf7" y="257.814675"/>
      </g>
     </g>
     <g id="text_8">
      <!-- 1 -->
      <g transform="translate(85.1445 263.133581)scale(0.14 -0.14)">
       <use xlink:href="#DejaVuSans-31"/>
      </g>
     </g>
    </g>
    <g id="ytick_5">
     <g id="line2d_17">
      <path clip-path="url(#p7949999379)" d="M 101.052 211.614675 
L 380.052 211.614675 
" style="fill:none;stroke:#b0b0b0;stroke-linecap:square;stroke-width:0.8;"/>
     </g>
     <g id="line2d_18">
      <g>
       <use style="stroke:#000000;stroke-width:0.8;" x="101.052" xlink:href="#mfa0978aaf7" y="211.614675"/>
      </g>
     </g>
     <g id="text_9">
      <!-- 2 -->
      <g transform="translate(85.1445 216.933581)scale(0.14 -0.14)">
       <use xlink:href="#DejaVuSans-32"/>
      </g>
     </g>
    </g>
    <g id="ytick_6">
     <g id="line2d_19">
      <path clip-path="url(#p7949999379)" d="M 101.052 165.414675 
L 380.052 165.414675 
" style="fill:none;stroke:#b0b0b0;stroke-linecap:square;stroke-width:0.8;"/>
     </g>
     <g id="line2d_20">
      <g>
       <use style="stroke:#000000;stroke-width:0.8;" x="101.052" xlink:href="#mfa0978aaf7" y="165.414675"/>
      </g>
     </g>
     <g id="text_10">
      <!-- 3 -->
      <defs>
       <path d="M 40.578125 39.3125 
Q 47.65625 37.796875 51.625 33 
Q 55.609375 28.21875 55.609375 21.1875 
Q 55.609375 10.40625 48.1875 4.484375 
Q 40.765625 -1.421875 27.09375 -1.421875 
Q 22.515625 -1.421875 17.65625 -0.515625 
Q 12.796875 0.390625 7.625 2.203125 
L 7.625 11.71875 
Q 11.71875 9.328125 16.59375 8.109375 
Q 21.484375 6.890625 26.8125 6.890625 
Q 36.078125 6.890625 40.9375 10.546875 
Q 45.796875 14.203125 45.796875 21.1875 
Q 45.796875 27.640625 41.28125 31.265625 
Q 36.765625 34.90625 28.71875 34.90625 
L 20.21875 34.90625 
L 20.21875 43.015625 
L 29.109375 43.015625 
Q 36.375 43.015625 40.234375 45.921875 
Q 44.09375 48.828125 44.09375 54.296875 
Q 44.09375 59.90625 40.109375 62.90625 
Q 36.140625 65.921875 28.71875 65.921875 
Q 24.65625 65.921875 20.015625 65.03125 
Q 15.375 64.15625 9.8125 62.3125 
L 9.8125 71.09375 
Q 15.4375 72.65625 20.34375 73.4375 
Q 25.25 74.21875 29.59375 74.21875 
Q 40.828125 74.21875 47.359375 69.109375 
Q 53.90625 64.015625 53.90625 55.328125 
Q 53.90625 49.265625 50.4375 45.09375 
Q 46.96875 40.921875 40.578125 39.3125 
z
" id="DejaVuSans-33"/>
      </defs>
      <g transform="translate(85.1445 170.733581)scale(0.14 -0.14)">
       <use xlink:href="#DejaVuSans-33"/>
      </g>
     </g>
    </g>
    <g id="ytick_7">
     <g id="line2d_21">
      <path clip-path="url(#p7949999379)" d="M 101.052 119.214675 
L 380.052 119.214675 
" style="fill:none;stroke:#b0b0b0;stroke-linecap:square;stroke-width:0.8;"/>
     </g>
     <g id="line2d_22">
      <g>
       <use style="stroke:#000000;stroke-width:0.8;" x="101.052" xlink:href="#mfa0978aaf7" y="119.214675"/>
      </g>
     </g>
     <g id="text_11">
      <!-- 4 -->
      <defs>
       <path d="M 37.796875 64.3125 
L 12.890625 25.390625 
L 37.796875 25.390625 
z
M 35.203125 72.90625 
L 47.609375 72.90625 
L 47.609375 25.390625 
L 58.015625 25.390625 
L 58.015625 17.1875 
L 47.609375 17.1875 
L 47.609375 0 
L 37.796875 0 
L 37.796875 17.1875 
L 4.890625 17.1875 
L 4.890625 26.703125 
z
" id="DejaVuSans-34"/>
      </defs>
      <g transform="translate(85.1445 124.533581)scale(0.14 -0.14)">
       <use xlink:href="#DejaVuSans-34"/>
      </g>
     </g>
    </g>
    <g id="text_12">
     <!-- logFC -->
     <defs>
      <path d="M 45.40625 27.984375 
Q 45.40625 37.75 41.375 43.109375 
Q 37.359375 48.484375 30.078125 48.484375 
Q 22.859375 48.484375 18.828125 43.109375 
Q 14.796875 37.75 14.796875 27.984375 
Q 14.796875 18.265625 18.828125 12.890625 
Q 22.859375 7.515625 30.078125 7.515625 
Q 37.359375 7.515625 41.375 12.890625 
Q 45.40625 18.265625 45.40625 27.984375 
z
M 54.390625 6.78125 
Q 54.390625 -7.171875 48.1875 -13.984375 
Q 42 -20.796875 29.203125 -20.796875 
Q 24.46875 -20.796875 20.265625 -20.09375 
Q 16.0625 -19.390625 12.109375 -17.921875 
L 12.109375 -9.1875 
Q 16.0625 -11.328125 19.921875 -12.34375 
Q 23.78125 -13.375 27.78125 -13.375 
Q 36.625 -13.375 41.015625 -8.765625 
Q 45.40625 -4.15625 45.40625 5.171875 
L 45.40625 9.625 
Q 42.625 4.78125 38.28125 2.390625 
Q 33.9375 0 27.875 0 
Q 17.828125 0 11.671875 7.65625 
Q 5.515625 15.328125 5.515625 27.984375 
Q 5.515625 40.671875 11.671875 48.328125 
Q 17.828125 56 27.875 56 
Q 33.9375 56 38.28125 53.609375 
Q 42.625 51.21875 45.40625 46.390625 
L 45.40625 54.6875 
L 54.390625 54.6875 
z
" id="DejaVuSans-67"/>
      <path d="M 9.8125 72.90625 
L 51.703125 72.90625 
L 51.703125 64.59375 
L 19.671875 64.59375 
L 19.671875 43.109375 
L 48.578125 43.109375 
L 48.578125 34.8125 
L 19.671875 34.8125 
L 19.671875 0 
L 9.8125 0 
z
" id="DejaVuSans-46"/>
     </defs>
     <g transform="translate(66.501375 277.400456)rotate(-90)scale(0.14 -0.14)">
      <use xlink:href="#DejaVuSans-6c"/>
      <use x="27.783203" xlink:href="#DejaVuSans-6f"/>
      <use x="88.964844" xlink:href="#DejaVuSans-67"/>
      <use x="152.441406" xlink:href="#DejaVuSans-46"/>
      <use x="209.960938" xlink:href="#DejaVuSans-43"/>
     </g>
    </g>
   </g>
   <g id="line2d_23">
    <path clip-path="url(#p7949999379)" d="M 120.23325 301.299132 
L 151.62075 301.299132 
L 151.62075 260.677882 
L 120.23325 260.677882 
L 120.23325 301.299132 
" style="fill:none;stroke:#1f77b4;stroke-linecap:square;"/>
   </g>
   <g id="line2d_24">
    <path clip-path="url(#p7949999379)" d="M 135.927 301.299132 
L 135.927 357.298176 
" style="fill:none;stroke:#1f77b4;stroke-linecap:square;"/>
   </g>
   <g id="line2d_25">
    <path clip-path="url(#p7949999379)" d="M 135.927 260.677882 
L 135.927 200.406653 
" style="fill:none;stroke:#1f77b4;stroke-linecap:square;"/>
   </g>
   <g id="line2d_26">
    <path clip-path="url(#p7949999379)" d="M 128.080125 357.298176 
L 143.773875 357.298176 
" style="fill:none;stroke:#000000;stroke-linecap:square;"/>
   </g>
   <g id="line2d_27">
    <path clip-path="url(#p7949999379)" d="M 128.080125 200.406653 
L 143.773875 200.406653 
" style="fill:none;stroke:#000000;stroke-linecap:square;"/>
   </g>
   <g id="line2d_28">
    <defs>
     <path d="M 0 3 
C 0.795609 3 1.55874 2.683901 2.12132 2.12132 
C 2.683901 1.55874 3 0.795609 3 0 
C 3 -0.795609 2.683901 -1.55874 2.12132 -2.12132 
C 1.55874 -2.683901 0.795609 -3 0 -3 
C -0.795609 -3 -1.55874 -2.683901 -2.12132 -2.12132 
C -2.683901 -1.55874 -3 -0.795609 -3 0 
C -3 0.795609 -2.683901 1.55874 -2.12132 2.12132 
C -1.55874 2.683901 -0.795609 3 0 3 
z
" id="m6d78648d4c" style="stroke:#000000;"/>
    </defs>
    <g clip-path="url(#p7949999379)">
     <use style="fill-opacity:0;stroke:#000000;" x="135.927" xlink:href="#m6d78648d4c" y="423.370318"/>
     <use style="fill-opacity:0;stroke:#000000;" x="135.927" xlink:href="#m6d78648d4c" y="364.335544"/>
     <use style="fill-opacity:0;stroke:#000000;" x="135.927" xlink:href="#m6d78648d4c" y="374.328973"/>
     <use style="fill-opacity:0;stroke:#000000;" x="135.927" xlink:href="#m6d78648d4c" y="372.063776"/>
     <use style="fill-opacity:0;stroke:#000000;" x="135.927" xlink:href="#m6d78648d4c" y="390.115543"/>
     <use style="fill-opacity:0;stroke:#000000;" x="135.927" xlink:href="#m6d78648d4c" y="393.327901"/>
     <use style="fill-opacity:0;stroke:#000000;" x="135.927" xlink:href="#m6d78648d4c" y="444.828638"/>
     <use style="fill-opacity:0;stroke:#000000;" x="135.927" xlink:href="#m6d78648d4c" y="368.903713"/>
     <use style="fill-opacity:0;stroke:#000000;" x="135.927" xlink:href="#m6d78648d4c" y="448.976878"/>
     <use style="fill-opacity:0;stroke:#000000;" x="135.927" xlink:href="#m6d78648d4c" y="402.565168"/>
     <use style="fill-opacity:0;stroke:#000000;" x="135.927" xlink:href="#m6d78648d4c" y="398.757379"/>
     <use style="fill-opacity:0;stroke:#000000;" x="135.927" xlink:href="#m6d78648d4c" y="368.61786"/>
     <use style="fill-opacity:0;stroke:#000000;" x="135.927" xlink:href="#m6d78648d4c" y="365.17927"/>
     <use style="fill-opacity:0;stroke:#000000;" x="135.927" xlink:href="#m6d78648d4c" y="454.464353"/>
     <use style="fill-opacity:0;stroke:#000000;" x="135.927" xlink:href="#m6d78648d4c" y="363.827923"/>
     <use style="fill-opacity:0;stroke:#000000;" x="135.927" xlink:href="#m6d78648d4c" y="498.557705"/>
     <use style="fill-opacity:0;stroke:#000000;" x="135.927" xlink:href="#m6d78648d4c" y="363.331231"/>
     <use style="fill-opacity:0;stroke:#000000;" x="135.927" xlink:href="#m6d78648d4c" y="369.030373"/>
     <use style="fill-opacity:0;stroke:#000000;" x="135.927" xlink:href="#m6d78648d4c" y="470.137594"/>
     <use style="fill-opacity:0;stroke:#000000;" x="135.927" xlink:href="#m6d78648d4c" y="391.690032"/>
     <use style="fill-opacity:0;stroke:#000000;" x="135.927" xlink:href="#m6d78648d4c" y="497.886037"/>
     <use style="fill-opacity:0;stroke:#000000;" x="135.927" xlink:href="#m6d78648d4c" y="415.948657"/>
     <use style="fill-opacity:0;stroke:#000000;" x="135.927" xlink:href="#m6d78648d4c" y="369.818428"/>
     <use style="fill-opacity:0;stroke:#000000;" x="135.927" xlink:href="#m6d78648d4c" y="396.948585"/>
     <use style="fill-opacity:0;stroke:#000000;" x="135.927" xlink:href="#m6d78648d4c" y="384.614659"/>
     <use style="fill-opacity:0;stroke:#000000;" x="135.927" xlink:href="#m6d78648d4c" y="370.554654"/>
     <use style="fill-opacity:0;stroke:#000000;" x="135.927" xlink:href="#m6d78648d4c" y="368.58336"/>
     <use style="fill-opacity:0;stroke:#000000;" x="135.927" xlink:href="#m6d78648d4c" y="187.567679"/>
     <use style="fill-opacity:0;stroke:#000000;" x="135.927" xlink:href="#m6d78648d4c" y="191.289816"/>
     <use style="fill-opacity:0;stroke:#000000;" x="135.927" xlink:href="#m6d78648d4c" y="176.732608"/>
     <use style="fill-opacity:0;stroke:#000000;" x="135.927" xlink:href="#m6d78648d4c" y="199.743996"/>
     <use style="fill-opacity:0;stroke:#000000;" x="135.927" xlink:href="#m6d78648d4c" y="191.560608"/>
     <use style="fill-opacity:0;stroke:#000000;" x="135.927" xlink:href="#m6d78648d4c" y="136.932902"/>
     <use style="fill-opacity:0;stroke:#000000;" x="135.927" xlink:href="#m6d78648d4c" y="175.743583"/>
     <use style="fill-opacity:0;stroke:#000000;" x="135.927" xlink:href="#m6d78648d4c" y="193.226868"/>
     <use style="fill-opacity:0;stroke:#000000;" x="135.927" xlink:href="#m6d78648d4c" y="147.336312"/>
     <use style="fill-opacity:0;stroke:#000000;" x="135.927" xlink:href="#m6d78648d4c" y="121.701101"/>
     <use style="fill-opacity:0;stroke:#000000;" x="135.927" xlink:href="#m6d78648d4c" y="139.008361"/>
     <use style="fill-opacity:0;stroke:#000000;" x="135.927" xlink:href="#m6d78648d4c" y="146.177699"/>
     <use style="fill-opacity:0;stroke:#000000;" x="135.927" xlink:href="#m6d78648d4c" y="135.301053"/>
     <use style="fill-opacity:0;stroke:#000000;" x="135.927" xlink:href="#m6d78648d4c" y="153.201422"/>
     <use style="fill-opacity:0;stroke:#000000;" x="135.927" xlink:href="#m6d78648d4c" y="188.892635"/>
     <use style="fill-opacity:0;stroke:#000000;" x="135.927" xlink:href="#m6d78648d4c" y="189.118972"/>
     <use style="fill-opacity:0;stroke:#000000;" x="135.927" xlink:href="#m6d78648d4c" y="178.890634"/>
     <use style="fill-opacity:0;stroke:#000000;" x="135.927" xlink:href="#m6d78648d4c" y="199.667867"/>
     <use style="fill-opacity:0;stroke:#000000;" x="135.927" xlink:href="#m6d78648d4c" y="162.977439"/>
     <use style="fill-opacity:0;stroke:#000000;" x="135.927" xlink:href="#m6d78648d4c" y="197.675203"/>
     <use style="fill-opacity:0;stroke:#000000;" x="135.927" xlink:href="#m6d78648d4c" y="193.831345"/>
     <use style="fill-opacity:0;stroke:#000000;" x="135.927" xlink:href="#m6d78648d4c" y="114.168596"/>
     <use style="fill-opacity:0;stroke:#000000;" x="135.927" xlink:href="#m6d78648d4c" y="175.759768"/>
     <use style="fill-opacity:0;stroke:#000000;" x="135.927" xlink:href="#m6d78648d4c" y="168.898707"/>
     <use style="fill-opacity:0;stroke:#000000;" x="135.927" xlink:href="#m6d78648d4c" y="178.759764"/>
     <use style="fill-opacity:0;stroke:#000000;" x="135.927" xlink:href="#m6d78648d4c" y="186.1205"/>
    </g>
   </g>
   <g id="line2d_29">
    <path clip-path="url(#p7949999379)" d="M 189.98325 321.581639 
L 221.37075 321.581639 
L 221.37075 287.150306 
L 189.98325 287.150306 
L 189.98325 321.581639 
" style="fill:none;stroke:#1f77b4;stroke-linecap:square;"/>
   </g>
   <g id="line2d_30">
    <path clip-path="url(#p7949999379)" d="M 205.677 321.581639 
L 205.677 372.624943 
" style="fill:none;stroke:#1f77b4;stroke-linecap:square;"/>
   </g>
   <g id="line2d_31">
    <path clip-path="url(#p7949999379)" d="M 205.677 287.150306 
L 205.677 236.156512 
" style="fill:none;stroke:#1f77b4;stroke-linecap:square;"/>
   </g>
   <g id="line2d_32">
    <path clip-path="url(#p7949999379)" d="M 197.830125 372.624943 
L 213.523875 372.624943 
" style="fill:none;stroke:#000000;stroke-linecap:square;"/>
   </g>
   <g id="line2d_33">
    <path clip-path="url(#p7949999379)" d="M 197.830125 236.156512 
L 213.523875 236.156512 
" style="fill:none;stroke:#000000;stroke-linecap:square;"/>
   </g>
   <g id="line2d_34">
    <g clip-path="url(#p7949999379)">
     <use style="fill-opacity:0;stroke:#000000;" x="205.677" xlink:href="#m6d78648d4c" y="385.993138"/>
     <use style="fill-opacity:0;stroke:#000000;" x="205.677" xlink:href="#m6d78648d4c" y="374.140823"/>
     <use style="fill-opacity:0;stroke:#000000;" x="205.677" xlink:href="#m6d78648d4c" y="373.564028"/>
     <use style="fill-opacity:0;stroke:#000000;" x="205.677" xlink:href="#m6d78648d4c" y="379.235164"/>
     <use style="fill-opacity:0;stroke:#000000;" x="205.677" xlink:href="#m6d78648d4c" y="381.662362"/>
     <use style="fill-opacity:0;stroke:#000000;" x="205.677" xlink:href="#m6d78648d4c" y="396.424239"/>
     <use style="fill-opacity:0;stroke:#000000;" x="205.677" xlink:href="#m6d78648d4c" y="464.697453"/>
     <use style="fill-opacity:0;stroke:#000000;" x="205.677" xlink:href="#m6d78648d4c" y="380.02115"/>
     <use style="fill-opacity:0;stroke:#000000;" x="205.677" xlink:href="#m6d78648d4c" y="461.363409"/>
     <use style="fill-opacity:0;stroke:#000000;" x="205.677" xlink:href="#m6d78648d4c" y="415.36593"/>
     <use style="fill-opacity:0;stroke:#000000;" x="205.677" xlink:href="#m6d78648d4c" y="418.327885"/>
     <use style="fill-opacity:0;stroke:#000000;" x="205.677" xlink:href="#m6d78648d4c" y="389.404268"/>
     <use style="fill-opacity:0;stroke:#000000;" x="205.677" xlink:href="#m6d78648d4c" y="385.762988"/>
     <use style="fill-opacity:0;stroke:#000000;" x="205.677" xlink:href="#m6d78648d4c" y="377.978596"/>
     <use style="fill-opacity:0;stroke:#000000;" x="205.677" xlink:href="#m6d78648d4c" y="480.279124"/>
     <use style="fill-opacity:0;stroke:#000000;" x="205.677" xlink:href="#m6d78648d4c" y="422.922591"/>
     <use style="fill-opacity:0;stroke:#000000;" x="205.677" xlink:href="#m6d78648d4c" y="398.405439"/>
     <use style="fill-opacity:0;stroke:#000000;" x="205.677" xlink:href="#m6d78648d4c" y="419.117516"/>
     <use style="fill-opacity:0;stroke:#000000;" x="205.677" xlink:href="#m6d78648d4c" y="418.17867"/>
     <use style="fill-opacity:0;stroke:#000000;" x="205.677" xlink:href="#m6d78648d4c" y="501.330374"/>
     <use style="fill-opacity:0;stroke:#000000;" x="205.677" xlink:href="#m6d78648d4c" y="411.173484"/>
     <use style="fill-opacity:0;stroke:#000000;" x="205.677" xlink:href="#m6d78648d4c" y="382.625928"/>
     <use style="fill-opacity:0;stroke:#000000;" x="205.677" xlink:href="#m6d78648d4c" y="375.356619"/>
     <use style="fill-opacity:0;stroke:#000000;" x="205.677" xlink:href="#m6d78648d4c" y="386.252175"/>
     <use style="fill-opacity:0;stroke:#000000;" x="205.677" xlink:href="#m6d78648d4c" y="380.773235"/>
     <use style="fill-opacity:0;stroke:#000000;" x="205.677" xlink:href="#m6d78648d4c" y="377.525394"/>
     <use style="fill-opacity:0;stroke:#000000;" x="205.677" xlink:href="#m6d78648d4c" y="230.029215"/>
     <use style="fill-opacity:0;stroke:#000000;" x="205.677" xlink:href="#m6d78648d4c" y="179.843582"/>
     <use style="fill-opacity:0;stroke:#000000;" x="205.677" xlink:href="#m6d78648d4c" y="208.313287"/>
     <use style="fill-opacity:0;stroke:#000000;" x="205.677" xlink:href="#m6d78648d4c" y="221.638075"/>
     <use style="fill-opacity:0;stroke:#000000;" x="205.677" xlink:href="#m6d78648d4c" y="235.341221"/>
     <use style="fill-opacity:0;stroke:#000000;" x="205.677" xlink:href="#m6d78648d4c" y="202.446367"/>
     <use style="fill-opacity:0;stroke:#000000;" x="205.677" xlink:href="#m6d78648d4c" y="214.528903"/>
     <use style="fill-opacity:0;stroke:#000000;" x="205.677" xlink:href="#m6d78648d4c" y="209.185373"/>
     <use style="fill-opacity:0;stroke:#000000;" x="205.677" xlink:href="#m6d78648d4c" y="210.51789"/>
     <use style="fill-opacity:0;stroke:#000000;" x="205.677" xlink:href="#m6d78648d4c" y="227.417848"/>
     <use style="fill-opacity:0;stroke:#000000;" x="205.677" xlink:href="#m6d78648d4c" y="156.336159"/>
     <use style="fill-opacity:0;stroke:#000000;" x="205.677" xlink:href="#m6d78648d4c" y="232.664853"/>
     <use style="fill-opacity:0;stroke:#000000;" x="205.677" xlink:href="#m6d78648d4c" y="147.403746"/>
     <use style="fill-opacity:0;stroke:#000000;" x="205.677" xlink:href="#m6d78648d4c" y="228.521398"/>
     <use style="fill-opacity:0;stroke:#000000;" x="205.677" xlink:href="#m6d78648d4c" y="216.574394"/>
     <use style="fill-opacity:0;stroke:#000000;" x="205.677" xlink:href="#m6d78648d4c" y="195.367432"/>
    </g>
   </g>
   <g id="line2d_35">
    <path clip-path="url(#p7949999379)" d="M 259.73325 319.217052 
L 291.12075 319.217052 
L 291.12075 273.106005 
L 259.73325 273.106005 
L 259.73325 319.217052 
" style="fill:none;stroke:#1f77b4;stroke-linecap:square;"/>
   </g>
   <g id="line2d_36">
    <path clip-path="url(#p7949999379)" d="M 275.427 319.217052 
L 275.427 386.515619 
" style="fill:none;stroke:#1f77b4;stroke-linecap:square;"/>
   </g>
   <g id="line2d_37">
    <path clip-path="url(#p7949999379)" d="M 275.427 273.106005 
L 275.427 204.269304 
" style="fill:none;stroke:#1f77b4;stroke-linecap:square;"/>
   </g>
   <g id="line2d_38">
    <path clip-path="url(#p7949999379)" d="M 267.580125 386.515619 
L 283.273875 386.515619 
" style="fill:none;stroke:#000000;stroke-linecap:square;"/>
   </g>
   <g id="line2d_39">
    <path clip-path="url(#p7949999379)" d="M 267.580125 204.269304 
L 283.273875 204.269304 
" style="fill:none;stroke:#000000;stroke-linecap:square;"/>
   </g>
   <g id="line2d_40">
    <g clip-path="url(#p7949999379)">
     <use style="fill-opacity:0;stroke:#000000;" x="275.427" xlink:href="#m6d78648d4c" y="433.85595"/>
     <use style="fill-opacity:0;stroke:#000000;" x="275.427" xlink:href="#m6d78648d4c" y="388.546842"/>
     <use style="fill-opacity:0;stroke:#000000;" x="275.427" xlink:href="#m6d78648d4c" y="425.27842"/>
     <use style="fill-opacity:0;stroke:#000000;" x="275.427" xlink:href="#m6d78648d4c" y="405.857583"/>
     <use style="fill-opacity:0;stroke:#000000;" x="275.427" xlink:href="#m6d78648d4c" y="403.019305"/>
     <use style="fill-opacity:0;stroke:#000000;" x="275.427" xlink:href="#m6d78648d4c" y="390.252285"/>
     <use style="fill-opacity:0;stroke:#000000;" x="275.427" xlink:href="#m6d78648d4c" y="390.472135"/>
     <use style="fill-opacity:0;stroke:#000000;" x="275.427" xlink:href="#m6d78648d4c" y="429.121446"/>
     <use style="fill-opacity:0;stroke:#000000;" x="275.427" xlink:href="#m6d78648d4c" y="389.471738"/>
     <use style="fill-opacity:0;stroke:#000000;" x="275.427" xlink:href="#m6d78648d4c" y="411.938159"/>
     <use style="fill-opacity:0;stroke:#000000;" x="275.427" xlink:href="#m6d78648d4c" y="190.221813"/>
     <use style="fill-opacity:0;stroke:#000000;" x="275.427" xlink:href="#m6d78648d4c" y="194.840975"/>
     <use style="fill-opacity:0;stroke:#000000;" x="275.427" xlink:href="#m6d78648d4c" y="202.140321"/>
     <use style="fill-opacity:0;stroke:#000000;" x="275.427" xlink:href="#m6d78648d4c" y="177.928088"/>
     <use style="fill-opacity:0;stroke:#000000;" x="275.427" xlink:href="#m6d78648d4c" y="106.505221"/>
     <use style="fill-opacity:0;stroke:#000000;" x="275.427" xlink:href="#m6d78648d4c" y="170.466447"/>
     <use style="fill-opacity:0;stroke:#000000;" x="275.427" xlink:href="#m6d78648d4c" y="170.635086"/>
     <use style="fill-opacity:0;stroke:#000000;" x="275.427" xlink:href="#m6d78648d4c" y="133.75748"/>
     <use style="fill-opacity:0;stroke:#000000;" x="275.427" xlink:href="#m6d78648d4c" y="179.968317"/>
     <use style="fill-opacity:0;stroke:#000000;" x="275.427" xlink:href="#m6d78648d4c" y="149.796868"/>
     <use style="fill-opacity:0;stroke:#000000;" x="275.427" xlink:href="#m6d78648d4c" y="186.169548"/>
     <use style="fill-opacity:0;stroke:#000000;" x="275.427" xlink:href="#m6d78648d4c" y="164.151605"/>
     <use style="fill-opacity:0;stroke:#000000;" x="275.427" xlink:href="#m6d78648d4c" y="172.546049"/>
     <use style="fill-opacity:0;stroke:#000000;" x="275.427" xlink:href="#m6d78648d4c" y="197.241293"/>
     <use style="fill-opacity:0;stroke:#000000;" x="275.427" xlink:href="#m6d78648d4c" y="152.671128"/>
     <use style="fill-opacity:0;stroke:#000000;" x="275.427" xlink:href="#m6d78648d4c" y="200.971948"/>
     <use style="fill-opacity:0;stroke:#000000;" x="275.427" xlink:href="#m6d78648d4c" y="169.514349"/>
     <use style="fill-opacity:0;stroke:#000000;" x="275.427" xlink:href="#m6d78648d4c" y="162.819522"/>
     <use style="fill-opacity:0;stroke:#000000;" x="275.427" xlink:href="#m6d78648d4c" y="134.99988"/>
     <use style="fill-opacity:0;stroke:#000000;" x="275.427" xlink:href="#m6d78648d4c" y="202.903587"/>
     <use style="fill-opacity:0;stroke:#000000;" x="275.427" xlink:href="#m6d78648d4c" y="171.921425"/>
     <use style="fill-opacity:0;stroke:#000000;" x="275.427" xlink:href="#m6d78648d4c" y="162.831866"/>
     <use style="fill-opacity:0;stroke:#000000;" x="275.427" xlink:href="#m6d78648d4c" y="183.047086"/>
     <use style="fill-opacity:0;stroke:#000000;" x="275.427" xlink:href="#m6d78648d4c" y="178.253103"/>
     <use style="fill-opacity:0;stroke:#000000;" x="275.427" xlink:href="#m6d78648d4c" y="155.019295"/>
     <use style="fill-opacity:0;stroke:#000000;" x="275.427" xlink:href="#m6d78648d4c" y="188.151629"/>
     <use style="fill-opacity:0;stroke:#000000;" x="275.427" xlink:href="#m6d78648d4c" y="143.076331"/>
     <use style="fill-opacity:0;stroke:#000000;" x="275.427" xlink:href="#m6d78648d4c" y="163.871"/>
     <use style="fill-opacity:0;stroke:#000000;" x="275.427" xlink:href="#m6d78648d4c" y="190.863724"/>
     <use style="fill-opacity:0;stroke:#000000;" x="275.427" xlink:href="#m6d78648d4c" y="203.210828"/>
     <use style="fill-opacity:0;stroke:#000000;" x="275.427" xlink:href="#m6d78648d4c" y="199.751291"/>
     <use style="fill-opacity:0;stroke:#000000;" x="275.427" xlink:href="#m6d78648d4c" y="182.804518"/>
    </g>
   </g>
   <g id="line2d_41">
    <path clip-path="url(#p7949999379)" d="M 329.48325 339.037835 
L 360.87075 339.037835 
L 360.87075 290.913315 
L 329.48325 290.913315 
L 329.48325 339.037835 
" style="fill:none;stroke:#1f77b4;stroke-linecap:square;"/>
   </g>
   <g id="line2d_42">
    <path clip-path="url(#p7949999379)" d="M 345.177 339.037835 
L 345.177 406.760976 
" style="fill:none;stroke:#1f77b4;stroke-linecap:square;"/>
   </g>
   <g id="line2d_43">
    <path clip-path="url(#p7949999379)" d="M 345.177 290.913315 
L 345.177 220.713207 
" style="fill:none;stroke:#1f77b4;stroke-linecap:square;"/>
   </g>
   <g id="line2d_44">
    <path clip-path="url(#p7949999379)" d="M 337.330125 406.760976 
L 353.023875 406.760976 
" style="fill:none;stroke:#000000;stroke-linecap:square;"/>
   </g>
   <g id="line2d_45">
    <path clip-path="url(#p7949999379)" d="M 337.330125 220.713207 
L 353.023875 220.713207 
" style="fill:none;stroke:#000000;stroke-linecap:square;"/>
   </g>
   <g id="line2d_46">
    <g clip-path="url(#p7949999379)">
     <use style="fill-opacity:0;stroke:#000000;" x="345.177" xlink:href="#m6d78648d4c" y="427.885377"/>
     <use style="fill-opacity:0;stroke:#000000;" x="345.177" xlink:href="#m6d78648d4c" y="455.883816"/>
     <use style="fill-opacity:0;stroke:#000000;" x="345.177" xlink:href="#m6d78648d4c" y="455.410437"/>
     <use style="fill-opacity:0;stroke:#000000;" x="345.177" xlink:href="#m6d78648d4c" y="444.791083"/>
     <use style="fill-opacity:0;stroke:#000000;" x="345.177" xlink:href="#m6d78648d4c" y="436.647926"/>
     <use style="fill-opacity:0;stroke:#000000;" x="345.177" xlink:href="#m6d78648d4c" y="432.132126"/>
     <use style="fill-opacity:0;stroke:#000000;" x="345.177" xlink:href="#m6d78648d4c" y="529.579106"/>
     <use style="fill-opacity:0;stroke:#000000;" x="345.177" xlink:href="#m6d78648d4c" y="411.234943"/>
     <use style="fill-opacity:0;stroke:#000000;" x="345.177" xlink:href="#m6d78648d4c" y="483.344359"/>
     <use style="fill-opacity:0;stroke:#000000;" x="345.177" xlink:href="#m6d78648d4c" y="467.404266"/>
     <use style="fill-opacity:0;stroke:#000000;" x="345.177" xlink:href="#m6d78648d4c" y="411.80212"/>
     <use style="fill-opacity:0;stroke:#000000;" x="345.177" xlink:href="#m6d78648d4c" y="418.004011"/>
     <use style="fill-opacity:0;stroke:#000000;" x="345.177" xlink:href="#m6d78648d4c" y="411.481625"/>
     <use style="fill-opacity:0;stroke:#000000;" x="345.177" xlink:href="#m6d78648d4c" y="429.208765"/>
     <use style="fill-opacity:0;stroke:#000000;" x="345.177" xlink:href="#m6d78648d4c" y="431.564011"/>
     <use style="fill-opacity:0;stroke:#000000;" x="345.177" xlink:href="#m6d78648d4c" y="213.057434"/>
     <use style="fill-opacity:0;stroke:#000000;" x="345.177" xlink:href="#m6d78648d4c" y="170.189139"/>
     <use style="fill-opacity:0;stroke:#000000;" x="345.177" xlink:href="#m6d78648d4c" y="213.235396"/>
     <use style="fill-opacity:0;stroke:#000000;" x="345.177" xlink:href="#m6d78648d4c" y="176.821549"/>
     <use style="fill-opacity:0;stroke:#000000;" x="345.177" xlink:href="#m6d78648d4c" y="198.925228"/>
     <use style="fill-opacity:0;stroke:#000000;" x="345.177" xlink:href="#m6d78648d4c" y="218.345038"/>
     <use style="fill-opacity:0;stroke:#000000;" x="345.177" xlink:href="#m6d78648d4c" y="209.894888"/>
     <use style="fill-opacity:0;stroke:#000000;" x="345.177" xlink:href="#m6d78648d4c" y="193.25462"/>
    </g>
   </g>
   <g id="line2d_47">
    <path clip-path="url(#p7949999379)" d="M 120.23325 282.865695 
L 151.62075 282.865695 
" style="fill:none;stroke:#2ca02c;stroke-linecap:square;"/>
   </g>
   <g id="line2d_48">
    <path clip-path="url(#p7949999379)" d="M 189.98325 305.093022 
L 221.37075 305.093022 
" style="fill:none;stroke:#2ca02c;stroke-linecap:square;"/>
   </g>
   <g id="line2d_49">
    <path clip-path="url(#p7949999379)" d="M 259.73325 296.135024 
L 291.12075 296.135024 
" style="fill:none;stroke:#2ca02c;stroke-linecap:square;"/>
   </g>
   <g id="line2d_50">
    <path clip-path="url(#p7949999379)" d="M 329.48325 311.543591 
L 360.87075 311.543591 
" style="fill:none;stroke:#2ca02c;stroke-linecap:square;"/>
   </g>
   <g id="patch_3">
    <path d="M 101.052 396.414675 
L 101.052 119.214675 
" style="fill:none;stroke:#000000;stroke-linecap:square;stroke-linejoin:miter;stroke-width:0.8;"/>
   </g>
   <g id="patch_4">
    <path d="M 380.052 396.414675 
L 380.052 119.214675 
" style="fill:none;stroke:#000000;stroke-linecap:square;stroke-linejoin:miter;stroke-width:0.8;"/>
   </g>
   <g id="patch_5">
    <path d="M 101.052 396.414675 
L 380.052 396.414675 
" style="fill:none;stroke:#000000;stroke-linecap:square;stroke-linejoin:miter;stroke-width:0.8;"/>
   </g>
   <g id="patch_6">
    <path d="M 101.052 119.214675 
L 380.052 119.214675 
" style="fill:none;stroke:#000000;stroke-linecap:square;stroke-linejoin:miter;stroke-width:0.8;"/>
   </g>
   <g id="text_13">
    <!--  -->
    <g transform="translate(240.552 19.965375)scale(0.168 -0.168)"/>
    <!--         independent-t-test-between-two-leftmost-samples -->
    <defs>
     <path id="DejaVuSans-20"/>
     <path d="M 54.890625 33.015625 
L 54.890625 0 
L 45.90625 0 
L 45.90625 32.71875 
Q 45.90625 40.484375 42.875 44.328125 
Q 39.84375 48.1875 33.796875 48.1875 
Q 26.515625 48.1875 22.3125 43.546875 
Q 18.109375 38.921875 18.109375 30.90625 
L 18.109375 0 
L 9.078125 0 
L 9.078125 54.6875 
L 18.109375 54.6875 
L 18.109375 46.1875 
Q 21.34375 51.125 25.703125 53.5625 
Q 30.078125 56 35.796875 56 
Q 45.21875 56 50.046875 50.171875 
Q 54.890625 44.34375 54.890625 33.015625 
z
" id="DejaVuSans-6e"/>
     <path d="M 45.40625 46.390625 
L 45.40625 75.984375 
L 54.390625 75.984375 
L 54.390625 0 
L 45.40625 0 
L 45.40625 8.203125 
Q 42.578125 3.328125 38.25 0.953125 
Q 33.9375 -1.421875 27.875 -1.421875 
Q 17.96875 -1.421875 11.734375 6.484375 
Q 5.515625 14.40625 5.515625 27.296875 
Q 5.515625 40.1875 11.734375 48.09375 
Q 17.96875 56 27.875 56 
Q 33.9375 56 38.25 53.625 
Q 42.578125 51.265625 45.40625 46.390625 
z
M 14.796875 27.296875 
Q 14.796875 17.390625 18.875 11.75 
Q 22.953125 6.109375 30.078125 6.109375 
Q 37.203125 6.109375 41.296875 11.75 
Q 45.40625 17.390625 45.40625 27.296875 
Q 45.40625 37.203125 41.296875 42.84375 
Q 37.203125 48.484375 30.078125 48.484375 
Q 22.953125 48.484375 18.875 42.84375 
Q 14.796875 37.203125 14.796875 27.296875 
z
" id="DejaVuSans-64"/>
     <path d="M 56.203125 29.59375 
L 56.203125 25.203125 
L 14.890625 25.203125 
Q 15.484375 15.921875 20.484375 11.0625 
Q 25.484375 6.203125 34.421875 6.203125 
Q 39.59375 6.203125 44.453125 7.46875 
Q 49.3125 8.734375 54.109375 11.28125 
L 54.109375 2.78125 
Q 49.265625 0.734375 44.1875 -0.34375 
Q 39.109375 -1.421875 33.890625 -1.421875 
Q 20.796875 -1.421875 13.15625 6.1875 
Q 5.515625 13.8125 5.515625 26.8125 
Q 5.515625 40.234375 12.765625 48.109375 
Q 20.015625 56 32.328125 56 
Q 43.359375 56 49.78125 48.890625 
Q 56.203125 41.796875 56.203125 29.59375 
z
M 47.21875 32.234375 
Q 47.125 39.59375 43.09375 43.984375 
Q 39.0625 48.390625 32.421875 48.390625 
Q 24.90625 48.390625 20.390625 44.140625 
Q 15.875 39.890625 15.1875 32.171875 
z
" id="DejaVuSans-65"/>
     <path d="M 18.3125 70.21875 
L 18.3125 54.6875 
L 36.8125 54.6875 
L 36.8125 47.703125 
L 18.3125 47.703125 
L 18.3125 18.015625 
Q 18.3125 11.328125 20.140625 9.421875 
Q 21.96875 7.515625 27.59375 7.515625 
L 36.8125 7.515625 
L 36.8125 0 
L 27.59375 0 
Q 17.1875 0 13.234375 3.875 
Q 9.28125 7.765625 9.28125 18.015625 
L 9.28125 47.703125 
L 2.6875 47.703125 
L 2.6875 54.6875 
L 9.28125 54.6875 
L 9.28125 70.21875 
z
" id="DejaVuSans-74"/>
     <path d="M 44.28125 53.078125 
L 44.28125 44.578125 
Q 40.484375 46.53125 36.375 47.5 
Q 32.28125 48.484375 27.875 48.484375 
Q 21.1875 48.484375 17.84375 46.4375 
Q 14.5 44.390625 14.5 40.28125 
Q 14.5 37.15625 16.890625 35.375 
Q 19.28125 33.59375 26.515625 31.984375 
L 29.59375 31.296875 
Q 39.15625 29.25 43.1875 25.515625 
Q 47.21875 21.78125 47.21875 15.09375 
Q 47.21875 7.46875 41.1875 3.015625 
Q 35.15625 -1.421875 24.609375 -1.421875 
Q 20.21875 -1.421875 15.453125 -0.5625 
Q 10.6875 0.296875 5.421875 2 
L 5.421875 11.28125 
Q 10.40625 8.6875 15.234375 7.390625 
Q 20.0625 6.109375 24.8125 6.109375 
Q 31.15625 6.109375 34.5625 8.28125 
Q 37.984375 10.453125 37.984375 14.40625 
Q 37.984375 18.0625 35.515625 20.015625 
Q 33.0625 21.96875 24.703125 23.78125 
L 21.578125 24.515625 
Q 13.234375 26.265625 9.515625 29.90625 
Q 5.8125 33.546875 5.8125 39.890625 
Q 5.8125 47.609375 11.28125 51.796875 
Q 16.75 56 26.8125 56 
Q 31.78125 56 36.171875 55.265625 
Q 40.578125 54.546875 44.28125 53.078125 
z
" id="DejaVuSans-73"/>
     <path d="M 48.6875 27.296875 
Q 48.6875 37.203125 44.609375 42.84375 
Q 40.53125 48.484375 33.40625 48.484375 
Q 26.265625 48.484375 22.1875 42.84375 
Q 18.109375 37.203125 18.109375 27.296875 
Q 18.109375 17.390625 22.1875 11.75 
Q 26.265625 6.109375 33.40625 6.109375 
Q 40.53125 6.109375 44.609375 11.75 
Q 48.6875 17.390625 48.6875 27.296875 
z
M 18.109375 46.390625 
Q 20.953125 51.265625 25.265625 53.625 
Q 29.59375 56 35.59375 56 
Q 45.5625 56 51.78125 48.09375 
Q 58.015625 40.1875 58.015625 27.296875 
Q 58.015625 14.40625 51.78125 6.484375 
Q 45.5625 -1.421875 35.59375 -1.421875 
Q 29.59375 -1.421875 25.265625 0.953125 
Q 20.953125 3.328125 18.109375 8.203125 
L 18.109375 0 
L 9.078125 0 
L 9.078125 75.984375 
L 18.109375 75.984375 
z
" id="DejaVuSans-62"/>
     <path d="M 4.203125 54.6875 
L 13.1875 54.6875 
L 24.421875 12.015625 
L 35.59375 54.6875 
L 46.1875 54.6875 
L 57.421875 12.015625 
L 68.609375 54.6875 
L 77.59375 54.6875 
L 63.28125 0 
L 52.6875 0 
L 40.921875 44.828125 
L 29.109375 0 
L 18.5 0 
z
" id="DejaVuSans-77"/>
     <path d="M 52 44.1875 
Q 55.375 50.25 60.0625 53.125 
Q 64.75 56 71.09375 56 
Q 79.640625 56 84.28125 50.015625 
Q 88.921875 44.046875 88.921875 33.015625 
L 88.921875 0 
L 79.890625 0 
L 79.890625 32.71875 
Q 79.890625 40.578125 77.09375 44.375 
Q 74.3125 48.1875 68.609375 48.1875 
Q 61.625 48.1875 57.5625 43.546875 
Q 53.515625 38.921875 53.515625 30.90625 
L 53.515625 0 
L 44.484375 0 
L 44.484375 32.71875 
Q 44.484375 40.625 41.703125 44.40625 
Q 38.921875 48.1875 33.109375 48.1875 
Q 26.21875 48.1875 22.15625 43.53125 
Q 18.109375 38.875 18.109375 30.90625 
L 18.109375 0 
L 9.078125 0 
L 9.078125 54.6875 
L 18.109375 54.6875 
L 18.109375 46.1875 
Q 21.1875 51.21875 25.484375 53.609375 
Q 29.78125 56 35.6875 56 
Q 41.65625 56 45.828125 52.96875 
Q 50 49.953125 52 44.1875 
z
" id="DejaVuSans-6d"/>
     <path d="M 34.28125 27.484375 
Q 23.390625 27.484375 19.1875 25 
Q 14.984375 22.515625 14.984375 16.5 
Q 14.984375 11.71875 18.140625 8.90625 
Q 21.296875 6.109375 26.703125 6.109375 
Q 34.1875 6.109375 38.703125 11.40625 
Q 43.21875 16.703125 43.21875 25.484375 
L 43.21875 27.484375 
z
M 52.203125 31.203125 
L 52.203125 0 
L 43.21875 0 
L 43.21875 8.296875 
Q 40.140625 3.328125 35.546875 0.953125 
Q 30.953125 -1.421875 24.3125 -1.421875 
Q 15.921875 -1.421875 10.953125 3.296875 
Q 6 8.015625 6 15.921875 
Q 6 25.140625 12.171875 29.828125 
Q 18.359375 34.515625 30.609375 34.515625 
L 43.21875 34.515625 
L 43.21875 35.40625 
Q 43.21875 41.609375 39.140625 45 
Q 35.0625 48.390625 27.6875 48.390625 
Q 23 48.390625 18.546875 47.265625 
Q 14.109375 46.140625 10.015625 43.890625 
L 10.015625 52.203125 
Q 14.9375 54.109375 19.578125 55.046875 
Q 24.21875 56 28.609375 56 
Q 40.484375 56 46.34375 49.84375 
Q 52.203125 43.703125 52.203125 31.203125 
z
" id="DejaVuSans-61"/>
    </defs>
    <g transform="translate(7.2 38.7777)scale(0.168 -0.168)">
     <use xlink:href="#DejaVuSans-20"/>
     <use x="31.787109" xlink:href="#DejaVuSans-20"/>
     <use x="63.574219" xlink:href="#DejaVuSans-20"/>
     <use x="95.361328" xlink:href="#DejaVuSans-20"/>
     <use x="127.148438" xlink:href="#DejaVuSans-20"/>
     <use x="158.935547" xlink:href="#DejaVuSans-20"/>
     <use x="190.722656" xlink:href="#DejaVuSans-20"/>
     <use x="222.509766" xlink:href="#DejaVuSans-20"/>
     <use x="254.296875" xlink:href="#DejaVuSans-69"/>
     <use x="282.080078" xlink:href="#DejaVuSans-6e"/>
     <use x="345.458984" xlink:href="#DejaVuSans-64"/>
     <use x="408.935547" xlink:href="#DejaVuSans-65"/>
     <use x="470.458984" xlink:href="#DejaVuSans-70"/>
     <use x="533.935547" xlink:href="#DejaVuSans-65"/>
     <use x="595.458984" xlink:href="#DejaVuSans-6e"/>
     <use x="658.837891" xlink:href="#DejaVuSans-64"/>
     <use x="722.314453" xlink:href="#DejaVuSans-65"/>
     <use x="783.837891" xlink:href="#DejaVuSans-6e"/>
     <use x="847.216797" xlink:href="#DejaVuSans-74"/>
     <use x="886.425781" xlink:href="#DejaVuSans-2d"/>
     <use x="922.509766" xlink:href="#DejaVuSans-74"/>
     <use x="961.71875" xlink:href="#DejaVuSans-2d"/>
     <use x="997.802734" xlink:href="#DejaVuSans-74"/>
     <use x="1037.011719" xlink:href="#DejaVuSans-65"/>
     <use x="1098.535156" xlink:href="#DejaVuSans-73"/>
     <use x="1150.634766" xlink:href="#DejaVuSans-74"/>
     <use x="1189.84375" xlink:href="#DejaVuSans-2d"/>
     <use x="1225.927734" xlink:href="#DejaVuSans-62"/>
     <use x="1289.404297" xlink:href="#DejaVuSans-65"/>
     <use x="1350.927734" xlink:href="#DejaVuSans-74"/>
     <use x="1390.136719" xlink:href="#DejaVuSans-77"/>
     <use x="1471.923828" xlink:href="#DejaVuSans-65"/>
     <use x="1533.447266" xlink:href="#DejaVuSans-65"/>
     <use x="1594.970703" xlink:href="#DejaVuSans-6e"/>
     <use x="1658.349609" xlink:href="#DejaVuSans-2d"/>
     <use x="1694.433594" xlink:href="#DejaVuSans-74"/>
     <use x="1733.642578" xlink:href="#DejaVuSans-77"/>
     <use x="1815.429688" xlink:href="#DejaVuSans-6f"/>
     <use x="1876.626953" xlink:href="#DejaVuSans-2d"/>
     <use x="1912.710938" xlink:href="#DejaVuSans-6c"/>
     <use x="1940.494141" xlink:href="#DejaVuSans-65"/>
     <use x="2002.017578" xlink:href="#DejaVuSans-66"/>
     <use x="2037.207031" xlink:href="#DejaVuSans-74"/>
     <use x="2076.416016" xlink:href="#DejaVuSans-6d"/>
     <use x="2173.828125" xlink:href="#DejaVuSans-6f"/>
     <use x="2235.009766" xlink:href="#DejaVuSans-73"/>
     <use x="2287.109375" xlink:href="#DejaVuSans-74"/>
     <use x="2326.318359" xlink:href="#DejaVuSans-2d"/>
     <use x="2362.402344" xlink:href="#DejaVuSans-73"/>
     <use x="2414.501953" xlink:href="#DejaVuSans-61"/>
     <use x="2475.78125" xlink:href="#DejaVuSans-6d"/>
     <use x="2573.193359" xlink:href="#DejaVuSans-70"/>
     <use x="2636.669922" xlink:href="#DejaVuSans-6c"/>
     <use x="2664.453125" xlink:href="#DejaVuSans-65"/>
     <use x="2725.976562" xlink:href="#DejaVuSans-73"/>
    </g>
    <!--         p=5.151E-47 -->
    <defs>
     <path d="M 10.59375 45.40625 
L 73.1875 45.40625 
L 73.1875 37.203125 
L 10.59375 37.203125 
z
M 10.59375 25.484375 
L 73.1875 25.484375 
L 73.1875 17.1875 
L 10.59375 17.1875 
z
" id="DejaVuSans-3d"/>
     <path d="M 10.796875 72.90625 
L 49.515625 72.90625 
L 49.515625 64.59375 
L 19.828125 64.59375 
L 19.828125 46.734375 
Q 21.96875 47.46875 24.109375 47.828125 
Q 26.265625 48.1875 28.421875 48.1875 
Q 40.625 48.1875 47.75 41.5 
Q 54.890625 34.8125 54.890625 23.390625 
Q 54.890625 11.625 47.5625 5.09375 
Q 40.234375 -1.421875 26.90625 -1.421875 
Q 22.3125 -1.421875 17.546875 -0.640625 
Q 12.796875 0.140625 7.71875 1.703125 
L 7.71875 11.625 
Q 12.109375 9.234375 16.796875 8.0625 
Q 21.484375 6.890625 26.703125 6.890625 
Q 35.15625 6.890625 40.078125 11.328125 
Q 45.015625 15.765625 45.015625 23.390625 
Q 45.015625 31 40.078125 35.4375 
Q 35.15625 39.890625 26.703125 39.890625 
Q 22.75 39.890625 18.8125 39.015625 
Q 14.890625 38.140625 10.796875 36.28125 
z
" id="DejaVuSans-35"/>
     <path d="M 10.6875 12.40625 
L 21 12.40625 
L 21 0 
L 10.6875 0 
z
" id="DejaVuSans-2e"/>
     <path d="M 9.8125 72.90625 
L 55.90625 72.90625 
L 55.90625 64.59375 
L 19.671875 64.59375 
L 19.671875 43.015625 
L 54.390625 43.015625 
L 54.390625 34.71875 
L 19.671875 34.71875 
L 19.671875 8.296875 
L 56.78125 8.296875 
L 56.78125 0 
L 9.8125 0 
z
" id="DejaVuSans-45"/>
    </defs>
    <g transform="translate(163.748437 57.590025)scale(0.168 -0.168)">
     <use xlink:href="#DejaVuSans-20"/>
     <use x="31.787109" xlink:href="#DejaVuSans-20"/>
     <use x="63.574219" xlink:href="#DejaVuSans-20"/>
     <use x="95.361328" xlink:href="#DejaVuSans-20"/>
     <use x="127.148438" xlink:href="#DejaVuSans-20"/>
     <use x="158.935547" xlink:href="#DejaVuSans-20"/>
     <use x="190.722656" xlink:href="#DejaVuSans-20"/>
     <use x="222.509766" xlink:href="#DejaVuSans-20"/>
     <use x="254.296875" xlink:href="#DejaVuSans-70"/>
     <use x="317.773438" xlink:href="#DejaVuSans-3d"/>
     <use x="401.5625" xlink:href="#DejaVuSans-35"/>
     <use x="465.185547" xlink:href="#DejaVuSans-2e"/>
     <use x="496.972656" xlink:href="#DejaVuSans-31"/>
     <use x="560.595703" xlink:href="#DejaVuSans-35"/>
     <use x="624.21875" xlink:href="#DejaVuSans-31"/>
     <use x="687.841797" xlink:href="#DejaVuSans-45"/>
     <use x="751.025391" xlink:href="#DejaVuSans-2d"/>
     <use x="787.109375" xlink:href="#DejaVuSans-34"/>
     <use x="850.732422" xlink:href="#DejaVuSans-37"/>
    </g>
    <!--         N=1007 -->
    <defs>
     <path d="M 9.8125 72.90625 
L 23.09375 72.90625 
L 55.421875 11.921875 
L 55.421875 72.90625 
L 64.984375 72.90625 
L 64.984375 0 
L 51.703125 0 
L 19.390625 60.984375 
L 19.390625 0 
L 9.8125 0 
z
" id="DejaVuSans-4e"/>
    </defs>
    <g transform="translate(184.493812 76.40235)scale(0.168 -0.168)">
     <use xlink:href="#DejaVuSans-20"/>
     <use x="31.787109" xlink:href="#DejaVuSans-20"/>
     <use x="63.574219" xlink:href="#DejaVuSans-20"/>
     <use x="95.361328" xlink:href="#DejaVuSans-20"/>
     <use x="127.148438" xlink:href="#DejaVuSans-20"/>
     <use x="158.935547" xlink:href="#DejaVuSans-20"/>
     <use x="190.722656" xlink:href="#DejaVuSans-20"/>
     <use x="222.509766" xlink:href="#DejaVuSans-20"/>
     <use x="254.296875" xlink:href="#DejaVuSans-4e"/>
     <use x="329.101562" xlink:href="#DejaVuSans-3d"/>
     <use x="412.890625" xlink:href="#DejaVuSans-31"/>
     <use x="476.513672" xlink:href="#DejaVuSans-30"/>
     <use x="540.136719" xlink:href="#DejaVuSans-30"/>
     <use x="603.759766" xlink:href="#DejaVuSans-37"/>
    </g>
    <!--          -->
    <g transform="translate(219.195 95.214675)scale(0.168 -0.168)">
     <use xlink:href="#DejaVuSans-20"/>
     <use x="31.787109" xlink:href="#DejaVuSans-20"/>
     <use x="63.574219" xlink:href="#DejaVuSans-20"/>
     <use x="95.361328" xlink:href="#DejaVuSans-20"/>
     <use x="127.148438" xlink:href="#DejaVuSans-20"/>
     <use x="158.935547" xlink:href="#DejaVuSans-20"/>
     <use x="190.722656" xlink:href="#DejaVuSans-20"/>
     <use x="222.509766" xlink:href="#DejaVuSans-20"/>
    </g>
   </g>
  </g>
 </g>
 <defs>
  <clipPath id="p7949999379">
   <rect height="277.2" width="279" x="101.052" y="119.214675"/>
  </clipPath>
 </defs>
</svg>
